<?xml version="1.0" encoding="utf-8"?>
<!-- Generator: Adobe Illustrator 28.3.0, SVG Export Plug-In . SVG Version: 6.00 Build 0)  -->
<svg version="1.1" id="Capa_1" xmlns="http://www.w3.org/2000/svg" xmlns:xlink="http://www.w3.org/1999/xlink" x="0px" y="0px"
	 viewBox="0 0 500 500" style="enable-background:new 0 0 500 500;" xml:space="preserve">
<style type="text/css">
	.st0{opacity:0.35;fill:url(#SVGID_1_);}
	.st1{opacity:0.35;fill:url(#SVGID_00000169554288758967121200000009548327884541721531_);}
	.st2{opacity:0.35;fill:url(#SVGID_00000047781678029917703910000007011507301989464981_);}
</style>
<linearGradient id="SVGID_1_" gradientUnits="userSpaceOnUse" x1="188.56" y1="250" x2="475.3734" y2="250" gradientTransform="matrix(0.4126 -0.9109 -0.9109 -0.4126 374.5832 580.8768)">
	<stop  offset="0" style="stop-color:#FFFFFF"/>
	<stop  offset="1" style="stop-color:#B3B3B3"/>
</linearGradient>
<circle class="st0" cx="250" cy="250" r="61.4"/>
<linearGradient id="SVGID_00000147184862585816858150000015903801830619742614_" gradientUnits="userSpaceOnUse" x1="100.76" y1="290.7521" x2="480.7396" y2="290.7521" gradientTransform="matrix(0.4126 -0.9109 -0.9109 -0.4126 374.5832 580.8768)">
	<stop  offset="0" style="stop-color:#FFFFFF"/>
	<stop  offset="0.9987" style="stop-color:#B3B3B3"/>
</linearGradient>
<path style="opacity:0.35;fill:url(#SVGID_00000147184862585816858150000015903801830619742614_);" d="M216.1,159.9
	c43.7-16.5,91.8,0.9,115.6,39.1l126.9-47.8C407.8,43.7,282-8.6,168.7,34.1S-4.7,199,28.1,313.3L155,265.6
	C147.7,221.2,172.4,176.4,216.1,159.9z"/>
<linearGradient id="SVGID_00000100347418001638592360000011784525415528938424_" gradientUnits="userSpaceOnUse" x1="104.8907" y1="209.2452" x2="484.8803" y2="209.2452" gradientTransform="matrix(0.4126 -0.9109 -0.9109 -0.4126 374.5832 580.8768)">
	<stop  offset="0" style="stop-color:#FFFFFF"/>
	<stop  offset="1" style="stop-color:#B3B3B3"/>
</linearGradient>
<path style="opacity:0.35;fill:url(#SVGID_00000100347418001638592360000011784525415528938424_);" d="M345,234.4
	c7.3,44.4-17.4,89.2-61.1,105.7s-91.8-0.9-115.6-39.1L41.4,348.7C92.2,456.3,218,508.6,331.3,465.9S504.7,301,471.9,186.7L345,234.4
	z"/>
</svg>
